{"title":"MTV.Video.Music.Awards.2015.HDTV.480p.x264.AAC-VYTO [P2PDL]","uid":12355218,"size":533520461,"categoryP":"video","categoryS":"tv_shows","magnet":"?xt=urn:btih:46e22dcdbc80ddc3d531c771c7a8afa952c48af1&amp;dn=MTV.Video.Music.Awards.2015.HDTV.480p.x264.AAC-VYTO+%5BP2PDL%5D&amp;tr=udp%3A%2F%2Ftracker.openbittorrent.com%3A80&amp;tr=udp%3A%2F%2Fopen.demonii.com%3A1337&amp;tr=udp%3A%2F%2Ftracker.coppersurfer.tk%3A6969&amp;tr=udp%3A%2F%2Fexodus.desync.com%3A6969","seeders":3,"leechers":4,"uploader":"ValidusVyto","files":6,"time":1441467227,"description":"____    ____ ____    ____ .___________.  ______   \n     /   /      /   / |           | /  __    \n    /   /      /   /  `---|  |----`|  |  |  | \n        /     _    _/       |  |     |  |  |  | \n       /        |  |         |  |     |  `--'  | \n    __/         |__|         |__|      ______/  \n                                                  \nPresenting Small Encodes with quality for years!\n                                                                                                   \n                                                                                                   \n\nMTV.Video.Music.Awards.2015.HDTV.480p.x264.AAC-VYTO\n\n\nGeneral\nFormat                         : MPEG-4\nFile size                      : 502 MiB\nDuration                       : 1h 44mn\nOverall bit rate               : 672 Kbps\n\nVideo\nFormat                         : AVC\nBit rate                       : 604 Kbps\nWidth                          : 720 pixels\nHeight                         : 400 pixels\nDisplay aspect ratio           : 16:9\nFrame rate mode                : Constant\nFrame rate                     : 29.970 fps\nBit depth                      : 8 bits\nStream size                    : 452 MiB (90%)\nWriting library                : x264 core 148 r2597 \n\nAudio\nFormat                         : AAC\nBit rate mode                  : Variable\nBit rate                       : 64.0 Kbps\nChannel(s)                     : 2 channels\nChannel positions              : Front: L R\nSampling rate                  : 48.0 KHz \nStream size                    : 47.8 MiB (10%)\n\n\nScreenshots:\n &lt;a href=&quot;\nhttp://ititli.com/tI&quot; rel=&quot;nofollow&quot; target=&quot;_NEW&quot;&gt;\nhttp://ititli.com/tI&lt;/a&gt; &lt;a href=&quot;\nhttp://ititli.com/tO&quot; rel=&quot;nofollow&quot; target=&quot;_NEW&quot;&gt;\nhttp://ititli.com/tO&lt;/a&gt; &lt;a href=&quot;\nhttp://ititli.com/L9&quot; rel=&quot;nofollow&quot; target=&quot;_NEW&quot;&gt;\nhttp://ititli.com/L9&lt;/a&gt; &lt;a href=&quot;\nhttp://ititli.com/LX&quot; rel=&quot;nofollow&quot; target=&quot;_NEW&quot;&gt;\nhttp://ititli.com/LX&lt;/a&gt; &lt;a href=&quot;\nhttp://ititli.com/Lq&quot; rel=&quot;nofollow&quot; target=&quot;_NEW&quot;&gt;\nhttp://ititli.com/Lq&lt;/a&gt; &lt;a href=&quot;\nhttp://ititli.com/Lr&quot; rel=&quot;nofollow&quot; target=&quot;_NEW&quot;&gt;\nhttp://ititli.com/Lr&lt;/a&gt; &lt;a href=&quot;\nhttp://ititli.com/L1&quot; rel=&quot;nofollow&quot; target=&quot;_NEW&quot;&gt;\nhttp://ititli.com/L1&lt;/a&gt; &lt;a href=&quot;\nhttp://ititli.com/LT&quot; rel=&quot;nofollow&quot; target=&quot;_NEW&quot;&gt;\nhttp://ititli.com/LT&lt;/a&gt; &lt;a href=&quot;\nhttp://ititli.com/LW&quot; rel=&quot;nofollow&quot; target=&quot;_NEW&quot;&gt;\nhttp://ititli.com/LW&lt;/a&gt; &lt;a href=&quot;\nhttp://ititli.com/Lg&quot; rel=&quot;nofollow&quot; target=&quot;_NEW&quot;&gt;\nhttp://ititli.com/Lg&lt;/a&gt; &lt;a href=&quot;\nhttp://ititli.com/Ln&quot; rel=&quot;nofollow&quot; target=&quot;_NEW&quot;&gt;\nhttp://ititli.com/Ln&lt;/a&gt; &lt;a href=&quot;\nhttp://ititli.com/Lw&quot; rel=&quot;nofollow&quot; target=&quot;_NEW&quot;&gt;\nhttp://ititli.com/Lw&lt;/a&gt; &lt;a href=&quot;\nhttp://ititli.com/L2&quot; rel=&quot;nofollow&quot; target=&quot;_NEW&quot;&gt;\nhttp://ititli.com/L2&lt;/a&gt; &lt;a href=&quot;\nhttp://ititli.com/L6&quot; rel=&quot;nofollow&quot; target=&quot;_NEW&quot;&gt;\nhttp://ititli.com/L6&lt;/a&gt; &lt;a href=&quot;\nhttp://ititli.com/L8&quot; rel=&quot;nofollow&quot; target=&quot;_NEW&quot;&gt;\nhttp://ititli.com/L8&lt;/a&gt;\n\n----------------------------------------------------------------------------------------------------\n\n\nEncoder Notes: Looking For Early Access To Anything You Can Provide DVDScr, R5, DVDR, BluRay, Direct\nAudio, Music Releases and Seedboxes. If You Got anything to offer please contact us.\n\nSupport us by donating BC - 1FgwdzPsd1y25Gea8wP1qni35uGCtmkRCD","torrent":{"xt":"urn:btih:46e22dcdbc80ddc3d531c771c7a8afa952c48af1","amp;dn":"MTV.Video.Music.Awards.2015.HDTV.480p.x264.AAC-VYTO+%5BP2PDL%5D","amp;tr":["udp%3A%2F%2Ftracker.openbittorrent.com%3A80","udp%3A%2F%2Fopen.demonii.com%3A1337","udp%3A%2F%2Ftracker.coppersurfer.tk%3A6969","udp%3A%2F%2Fexodus.desync.com%3A6969"],"infoHash":"46e22dcdbc80ddc3d531c771c7a8afa952c48af1","infoHashBuffer":{"type":"Buffer","data":[70,226,45,205,188,128,221,195,213,49,199,113,199,168,175,169,82,196,138,241]},"announce":[],"urlList":[]}}